<mxfile host="app.diagrams.net" agent="Mozilla/5.0 (Macintosh; Intel Mac OS X 10_15_7) AppleWebKit/537.36 (KHTML, like Gecko) Chrome/134.0.0.0 Safari/537.36" version="24.7.16">
  <diagram name="Page-1" id="52a04d89-c75d-2922-d76d-85b35f80e030">
    <mxGraphModel dx="1514" dy="1012" grid="1" gridSize="10" guides="1" tooltips="1" connect="1" arrows="1" fold="1" page="1" pageScale="1" pageWidth="1100" pageHeight="850" background="none" math="0" shadow="0">
      <root>
        <mxCell id="0" />
        <mxCell id="1" parent="0" />
        <mxCell id="1fdf3b25b50cf41e-27" style="edgeStyle=none;html=1;labelBackgroundColor=none;startFill=0;startSize=8;endFill=1;endSize=8;fontFamily=Verdana;fontSize=12;entryX=0;entryY=0.5;entryDx=0;entryDy=0;" parent="1" source="17472293e6e8944d-30" target="qw_pQkbchFtbO8mkfOSz-2" edge="1">
          <mxGeometry relative="1" as="geometry">
            <mxPoint x="430.0000000000002" y="102.02631578947364" as="targetPoint" />
          </mxGeometry>
        </mxCell>
        <mxCell id="17472293e6e8944d-30" value="User" style="whiteSpace=wrap;html=1;rounded=0;shadow=0;comic=0;labelBackgroundColor=none;strokeWidth=1;fontFamily=Verdana;fontSize=12;align=center;" parent="1" vertex="1">
          <mxGeometry x="40" y="54" width="120" height="50" as="geometry" />
        </mxCell>
        <mxCell id="qw_pQkbchFtbO8mkfOSz-2" value="Register" style="ellipse;whiteSpace=wrap;html=1;" vertex="1" parent="1">
          <mxGeometry x="240" y="50" width="120" height="60" as="geometry" />
        </mxCell>
        <mxCell id="qw_pQkbchFtbO8mkfOSz-3" value="Account" style="rounded=0;whiteSpace=wrap;html=1;" vertex="1" parent="1">
          <mxGeometry x="441" y="58" width="120" height="45" as="geometry" />
        </mxCell>
        <mxCell id="qw_pQkbchFtbO8mkfOSz-4" style="edgeStyle=none;html=1;labelBackgroundColor=none;startFill=0;startSize=8;endFill=1;endSize=8;fontFamily=Verdana;fontSize=12;entryX=0;entryY=0.5;entryDx=0;entryDy=0;" edge="1" parent="1" target="qw_pQkbchFtbO8mkfOSz-3">
          <mxGeometry relative="1" as="geometry">
            <mxPoint x="360" y="80.19" as="sourcePoint" />
            <mxPoint x="420" y="80.19" as="targetPoint" />
          </mxGeometry>
        </mxCell>
        <mxCell id="qw_pQkbchFtbO8mkfOSz-5" value="Login&lt;div&gt;Success&lt;/div&gt;" style="text;html=1;align=center;verticalAlign=middle;resizable=0;points=[];autosize=1;strokeColor=none;fillColor=none;" vertex="1" parent="1">
          <mxGeometry x="361" y="60" width="70" height="40" as="geometry" />
        </mxCell>
        <mxCell id="qw_pQkbchFtbO8mkfOSz-6" value="Login&lt;div&gt;Detail&lt;/div&gt;" style="text;html=1;align=center;verticalAlign=middle;resizable=0;points=[];autosize=1;strokeColor=none;fillColor=none;" vertex="1" parent="1">
          <mxGeometry x="169" y="59" width="50" height="40" as="geometry" />
        </mxCell>
        <mxCell id="qw_pQkbchFtbO8mkfOSz-7" style="edgeStyle=none;html=1;labelBackgroundColor=none;startFill=0;startSize=8;endFill=1;endSize=8;fontFamily=Verdana;fontSize=12;entryX=0;entryY=0.5;entryDx=0;entryDy=0;exitX=0.5;exitY=1;exitDx=0;exitDy=0;" edge="1" parent="1" target="qw_pQkbchFtbO8mkfOSz-8" source="17472293e6e8944d-30">
          <mxGeometry relative="1" as="geometry">
            <mxPoint x="160" y="161" as="sourcePoint" />
            <mxPoint x="430.0000000000002" y="184.02631578947364" as="targetPoint" />
            <Array as="points">
              <mxPoint x="100" y="170" />
            </Array>
          </mxGeometry>
        </mxCell>
        <mxCell id="qw_pQkbchFtbO8mkfOSz-9" value="Account" style="rounded=0;whiteSpace=wrap;html=1;" vertex="1" parent="1">
          <mxGeometry x="441" y="149" width="120" height="45" as="geometry" />
        </mxCell>
        <mxCell id="qw_pQkbchFtbO8mkfOSz-10" style="edgeStyle=none;html=1;labelBackgroundColor=none;startFill=0;startSize=8;endFill=1;endSize=8;fontFamily=Verdana;fontSize=12;entryX=0;entryY=0.5;entryDx=0;entryDy=0;" edge="1" parent="1" target="qw_pQkbchFtbO8mkfOSz-9">
          <mxGeometry relative="1" as="geometry">
            <mxPoint x="360" y="171.19" as="sourcePoint" />
            <mxPoint x="420" y="171.19" as="targetPoint" />
          </mxGeometry>
        </mxCell>
        <mxCell id="qw_pQkbchFtbO8mkfOSz-11" value="&lt;div&gt;Auth&lt;/div&gt;&lt;div&gt;Success&lt;/div&gt;" style="text;html=1;align=center;verticalAlign=middle;resizable=0;points=[];autosize=1;strokeColor=none;fillColor=none;" vertex="1" parent="1">
          <mxGeometry x="361" y="151" width="70" height="40" as="geometry" />
        </mxCell>
        <mxCell id="qw_pQkbchFtbO8mkfOSz-12" value="OAuth&lt;br&gt;&lt;div&gt;Detail&lt;/div&gt;" style="text;html=1;align=center;verticalAlign=middle;resizable=0;points=[];autosize=1;strokeColor=none;fillColor=none;" vertex="1" parent="1">
          <mxGeometry x="140" y="150.5" width="60" height="40" as="geometry" />
        </mxCell>
        <mxCell id="qw_pQkbchFtbO8mkfOSz-14" value="Authorized User" style="whiteSpace=wrap;html=1;rounded=0;shadow=0;comic=0;labelBackgroundColor=none;strokeWidth=1;fontFamily=Verdana;fontSize=12;align=center;" vertex="1" parent="1">
          <mxGeometry x="40" y="232.5" width="120" height="45" as="geometry" />
        </mxCell>
        <mxCell id="qw_pQkbchFtbO8mkfOSz-15" value="" style="endArrow=none;dashed=1;html=1;dashPattern=1 3;strokeWidth=2;rounded=0;entryX=0.5;entryY=1;entryDx=0;entryDy=0;exitX=0.336;exitY=-0.026;exitDx=0;exitDy=0;exitPerimeter=0;" edge="1" parent="1" source="qw_pQkbchFtbO8mkfOSz-14" target="qw_pQkbchFtbO8mkfOSz-2">
          <mxGeometry width="50" height="50" relative="1" as="geometry">
            <mxPoint x="280" y="230" as="sourcePoint" />
            <mxPoint x="330" y="180" as="targetPoint" />
            <Array as="points">
              <mxPoint x="80" y="130" />
              <mxPoint x="300" y="130" />
            </Array>
          </mxGeometry>
        </mxCell>
        <mxCell id="qw_pQkbchFtbO8mkfOSz-8" value="OAuth / Add Auth" style="ellipse;whiteSpace=wrap;html=1;" vertex="1" parent="1">
          <mxGeometry x="240" y="141" width="120" height="60" as="geometry" />
        </mxCell>
        <mxCell id="qw_pQkbchFtbO8mkfOSz-23" style="edgeStyle=none;html=1;labelBackgroundColor=none;startFill=0;startSize=8;endFill=1;endSize=8;fontFamily=Verdana;fontSize=12;entryX=0;entryY=0.5;entryDx=0;entryDy=0;" edge="1" parent="1" target="qw_pQkbchFtbO8mkfOSz-24">
          <mxGeometry relative="1" as="geometry">
            <mxPoint x="160" y="254" as="sourcePoint" />
            <mxPoint x="430.0000000000002" y="277.02631578947364" as="targetPoint" />
          </mxGeometry>
        </mxCell>
        <mxCell id="qw_pQkbchFtbO8mkfOSz-24" value="Authorize" style="ellipse;whiteSpace=wrap;html=1;" vertex="1" parent="1">
          <mxGeometry x="240" y="225" width="120" height="60" as="geometry" />
        </mxCell>
        <mxCell id="qw_pQkbchFtbO8mkfOSz-25" value="Session" style="rounded=0;whiteSpace=wrap;html=1;" vertex="1" parent="1">
          <mxGeometry x="441" y="232.5" width="120" height="45" as="geometry" />
        </mxCell>
        <mxCell id="qw_pQkbchFtbO8mkfOSz-26" style="edgeStyle=none;html=1;labelBackgroundColor=none;startFill=0;startSize=8;endFill=1;endSize=8;fontFamily=Verdana;fontSize=12;entryX=0;entryY=0.5;entryDx=0;entryDy=0;" edge="1" parent="1" target="qw_pQkbchFtbO8mkfOSz-25">
          <mxGeometry relative="1" as="geometry">
            <mxPoint x="360" y="255.19" as="sourcePoint" />
            <mxPoint x="420" y="255.19" as="targetPoint" />
          </mxGeometry>
        </mxCell>
        <mxCell id="qw_pQkbchFtbO8mkfOSz-29" value="Tunnel" style="whiteSpace=wrap;html=1;rounded=0;shadow=0;comic=0;labelBackgroundColor=none;strokeWidth=1;fontFamily=Verdana;fontSize=12;align=center;" vertex="1" parent="1">
          <mxGeometry x="40" y="317.5" width="120" height="45" as="geometry" />
        </mxCell>
        <mxCell id="qw_pQkbchFtbO8mkfOSz-30" style="edgeStyle=none;html=1;labelBackgroundColor=none;startFill=0;startSize=8;endFill=1;endSize=8;fontFamily=Verdana;fontSize=12;entryX=0;entryY=0.5;entryDx=0;entryDy=0;" edge="1" parent="1" target="qw_pQkbchFtbO8mkfOSz-31">
          <mxGeometry relative="1" as="geometry">
            <mxPoint x="160" y="339" as="sourcePoint" />
            <mxPoint x="430.0000000000002" y="362.02631578947364" as="targetPoint" />
          </mxGeometry>
        </mxCell>
        <mxCell id="qw_pQkbchFtbO8mkfOSz-31" value="Init / Auth Tunnel" style="ellipse;whiteSpace=wrap;html=1;" vertex="1" parent="1">
          <mxGeometry x="240" y="310" width="120" height="60" as="geometry" />
        </mxCell>
        <mxCell id="qw_pQkbchFtbO8mkfOSz-32" style="edgeStyle=none;html=1;labelBackgroundColor=none;startFill=0;startSize=8;endFill=1;endSize=8;fontFamily=Verdana;fontSize=12;entryX=1;entryY=0.5;entryDx=0;entryDy=0;exitX=0.5;exitY=1;exitDx=0;exitDy=0;" edge="1" parent="1" source="qw_pQkbchFtbO8mkfOSz-25" target="qw_pQkbchFtbO8mkfOSz-31">
          <mxGeometry relative="1" as="geometry">
            <mxPoint x="360" y="340.19" as="sourcePoint" />
            <mxPoint x="441" y="341" as="targetPoint" />
            <Array as="points">
              <mxPoint x="500" y="340" />
            </Array>
          </mxGeometry>
        </mxCell>
        <mxCell id="qw_pQkbchFtbO8mkfOSz-37" value="" style="rounded=0;whiteSpace=wrap;html=1;" vertex="1" parent="1">
          <mxGeometry x="441" y="58" width="20" height="45" as="geometry" />
        </mxCell>
        <mxCell id="qw_pQkbchFtbO8mkfOSz-38" value="" style="rounded=0;whiteSpace=wrap;html=1;" vertex="1" parent="1">
          <mxGeometry x="441" y="149" width="20" height="45" as="geometry" />
        </mxCell>
        <mxCell id="qw_pQkbchFtbO8mkfOSz-39" value="" style="rounded=0;whiteSpace=wrap;html=1;" vertex="1" parent="1">
          <mxGeometry x="441" y="233" width="20" height="45" as="geometry" />
        </mxCell>
        <mxCell id="qw_pQkbchFtbO8mkfOSz-40" value="" style="rounded=0;whiteSpace=wrap;html=1;" vertex="1" parent="1">
          <mxGeometry x="40" y="317.5" width="20" height="45" as="geometry" />
        </mxCell>
        <mxCell id="qw_pQkbchFtbO8mkfOSz-42" style="edgeStyle=none;html=1;labelBackgroundColor=none;startFill=0;startSize=8;endFill=1;endSize=8;fontFamily=Verdana;fontSize=12;exitX=0.5;exitY=1;exitDx=0;exitDy=0;" edge="1" parent="1">
          <mxGeometry relative="1" as="geometry">
            <mxPoint x="101" y="362.5" as="sourcePoint" />
            <mxPoint x="240" y="425" as="targetPoint" />
            <Array as="points">
              <mxPoint x="100" y="424.5" />
            </Array>
          </mxGeometry>
        </mxCell>
        <mxCell id="qw_pQkbchFtbO8mkfOSz-43" value="Tunnel Established" style="ellipse;whiteSpace=wrap;html=1;" vertex="1" parent="1">
          <mxGeometry x="240" y="395" width="120" height="60" as="geometry" />
        </mxCell>
      </root>
    </mxGraphModel>
  </diagram>
</mxfile>
